HIERARCHY
ROOT Hips
{
	OFFSET 0.000000 0.000000 0.000000
	CHANNELS 6 Xposition Yposition Zposition Xrotation Yrotation Zrotation
	JOINT LeftUpLeg_virtual
	{
		OFFSET 0.000000 0.000000 0.000000
		CHANNELS 3 Xrotation Yrotation Zrotation
		JOINT LeftUpLeg
		{
			OFFSET 13.026900 -6.336304 -1.092800
			CHANNELS 3 Xrotation Yrotation Zrotation
			JOINT LeftLeg
			{
				OFFSET 0.524474 -46.096886 9.782700
				CHANNELS 3 Xrotation Yrotation Zrotation
				JOINT LeftFoot
				{
					OFFSET -0.524474 -53.427422 -12.948200
					CHANNELS 3 Xrotation Yrotation Zrotation
					JOINT LeftToeBase
					{
						OFFSET 0.192200 -14.009700 16.364100
						CHANNELS 3 Xrotation Yrotation Zrotation
						JOINT LeftToe_End
						{
							OFFSET -1.784700 -0.561700 9.474800
							CHANNELS 3 Xrotation Yrotation Zrotation
							End Site
							{
								OFFSET 0 0 0
							}
						}
					}
				}
			}
		}
	}
	JOINT RightUpLeg_virtual
	{
		OFFSET 0.000000 0.000000 0.000000
		CHANNELS 3 Xrotation Yrotation Zrotation
		JOINT RightUpLeg
		{
			OFFSET -12.883000 -6.336304 -1.092800
			CHANNELS 3 Xrotation Yrotation Zrotation
			JOINT RightLeg
			{
				OFFSET -0.524587 -46.096825 9.782800
				CHANNELS 3 Xrotation Yrotation Zrotation
				JOINT RightFoot
				{
					OFFSET 0.524587 -53.427383 -12.948300
					CHANNELS 3 Xrotation Yrotation Zrotation
					JOINT RightToeBase
					{
						OFFSET -0.192200 -14.009700 16.364100
						CHANNELS 3 Xrotation Yrotation Zrotation
						JOINT RightToe_End
						{
							OFFSET 1.784700 -0.561700 9.474800
							CHANNELS 3 Xrotation Yrotation Zrotation
							End Site
							{
								OFFSET 0 0 0
							}
						}
					}
				}
			}
		}
	}
	JOINT Spine_virtual
	{
		OFFSET 0.000000 0.000000 0.000000
		CHANNELS 3 Xrotation Yrotation Zrotation
		JOINT Spine
		{
			OFFSET 0.072000 7.257294 -0.789700
			CHANNELS 3 Xrotation Yrotation Zrotation
			JOINT Spine1
			{
				OFFSET 0.000000 12.508769 -0.658067
				CHANNELS 3 Xrotation Yrotation Zrotation
				JOINT Spine1_split
				{
					OFFSET 0.000000 12.508769 -0.658067
					CHANNELS 3 Xrotation Yrotation Zrotation
					JOINT Spine2
					{
						OFFSET 0.000000 12.508769 -0.658067
						CHANNELS 3 Xrotation Yrotation Zrotation
						JOINT Neck_virtual
						{
							OFFSET 0.000000 0.000000 0.000000
							CHANNELS 3 Xrotation Yrotation Zrotation
							JOINT Neck
							{
								OFFSET 0.000000 14.033295 7.520400
								CHANNELS 3 Xrotation Yrotation Zrotation
								JOINT Head
								{
									OFFSET 0.000000 8.198502 5.703100
									CHANNELS 3 Xrotation Yrotation Zrotation
									JOINT HeadTop_End
									{
										OFFSET 0.000000 17.760803 13.332701
										CHANNELS 3 Xrotation Yrotation Zrotation
										End Site
										{
											OFFSET 0 0 0
										}
									}
								}
							}
						}
						JOINT LeftShoulder_virtual
						{
							OFFSET 0.000000 0.000000 0.000000
							CHANNELS 3 Xrotation Yrotation Zrotation
							JOINT LeftShoulder
							{
								OFFSET 6.292450 5.785301 -0.669000
								CHANNELS 3 Xrotation Yrotation Zrotation
								JOINT LeftShoulder_split
								{
									OFFSET 6.292450 5.785301 -0.669000
									CHANNELS 3 Xrotation Yrotation Zrotation
									JOINT LeftArm
									{
										OFFSET 13.907140 -6.093903 1.965100
										CHANNELS 3 Xrotation Yrotation Zrotation
										JOINT LeftForeArm
										{
											OFFSET 34.140198 0.000000 0.000000
											CHANNELS 3 Xrotation Yrotation Zrotation
											JOINT LeftHand
											{
												OFFSET 40.960209 0.000000 0.000000
												CHANNELS 3 Xrotation Yrotation Zrotation
												End Site
												{
													OFFSET 0 0 0
												}
											}
										}
									}
								}
							}
						}
						JOINT RightShoulder_virtual
						{
							OFFSET 0.000000 0.000000 0.000000
							CHANNELS 3 Xrotation Yrotation Zrotation
							JOINT RightShoulder
							{
								OFFSET -6.292450 5.785301 -0.669000
								CHANNELS 3 Xrotation Yrotation Zrotation
								JOINT RightShoulder_split
								{
									OFFSET -6.292450 5.785301 -0.669000
									CHANNELS 3 Xrotation Yrotation Zrotation
									JOINT RightArm
									{
										OFFSET -13.907140 -6.093903 1.965100
										CHANNELS 3 Xrotation Yrotation Zrotation
										JOINT RightForeArm
										{
											OFFSET -34.140198 0.000000 0.000000
											CHANNELS 3 Xrotation Yrotation Zrotation
											JOINT RightHand
											{
												OFFSET -40.960209 0.000000 0.000000
												CHANNELS 3 Xrotation Yrotation Zrotation
												End Site
												{
													OFFSET 0 0 0
												}
											}
										}
									}
								}
							}
						}
					}
				}
			}
		}
	}
}
MOTION
Frames: 4
Frame Time: 0.03333333
-14.863751 78.696877 -5.799500 0.000000 0.000000 0.000000 -5.824801 0.278298 0.725967 -68.684437 -8.375585 7.484806 66.715785 -18.888181 -10.158278 4.846133 -3.975240 -2.886361 -0.327648 1.265828 0.837265 0.000000 0.000000 0.000000 -5.824801 0.278298 0.725967 -14.319492 -0.327453 -4.536286 85.129265 -9.493131 -6.495692 -29.241706 0.086908 18.343093 -37.423757 -0.847641 -0.547632 0.000000 0.000000 0.000000 -5.824801 0.278298 0.725967 10.235202 2.061464 -2.361698 6.501258 0.729002 -3.378758 0.000000 0.000000 0.000000 0.000000 0.000000 0.000000 6.523719 0.729118 -3.378285 9.843669 -5.617183 10.551911 3.206792 -2.376969 -8.937636 0.000000 0.000000 0.000000 6.523719 0.729118 -3.378285 -7.792790 -34.654563 -7.359484 0.000000 0.000000 0.000000 -44.353213 -10.873692 -37.210642 -98.512317 -63.863293 -100.923538 0.000000 0.000000 0.000000 6.523719 0.729118 -3.378285 -10.485886 37.534867 14.174114 0.000000 0.000000 0.000000 -47.959351 3.085237 36.191738 -96.820356 58.006010 104.472716 0.000000 0.000000 0.000000 
-15.415729 83.160660 -5.410748 0.000000 0.000000 0.000000 -2.879409 3.170373 1.084048 -66.754444 -7.887199 4.459973 60.708538 -18.409341 -8.781074 5.692653 -3.659794 -3.533555 -0.327626 1.263338 0.837212 0.000000 0.000000 0.000000 -2.879409 3.170373 1.084048 -13.265796 -2.823030 -3.775708 77.855284 -10.209311 -6.800740 -30.148653 0.528350 16.775032 -33.259965 -0.280186 -0.982790 0.000000 0.000000 0.000000 -2.879409 3.170373 1.084048 8.967306 1.614052 -2.687192 3.966863 0.230935 -3.978306 0.000000 0.000000 0.000000 0.000000 0.000000 0.000000 3.989348 0.231038 -3.977842 5.038292 -8.338509 11.033144 -0.460167 -3.911049 -10.648853 0.000000 0.000000 0.000000 3.989348 0.231038 -3.977842 -8.173990 -31.527989 -8.252501 0.000000 0.000000 0.000000 -31.588563 -14.766821 -24.997738 -124.594549 -59.639696 -127.258732 0.000000 0.000000 0.000000 3.989348 0.231038 -3.977842 -8.947958 32.923233 10.353827 0.000000 0.000000 0.000000 -34.168411 8.238683 31.408867 -129.897152 61.687653 135.132465 0.000000 0.000000 0.000000 
-15.978353 88.799713 -4.795174 0.000000 0.000000 0.000000 1.174197 6.545433 1.597468 -64.245948 -7.576929 0.683551 52.371466 -17.881264 -6.868538 7.172674 -3.227917 -4.675337 -0.327522 1.259960 0.837202 0.000000 0.000000 0.000000 1.174197 6.545433 1.597468 -13.018382 -4.415954 -2.691524 68.852958 -11.451547 -7.279137 -28.442965 1.068151 15.395803 -30.433895 -0.163525 -1.037279 0.000000 0.000000 0.000000 1.174197 6.545433 1.597468 7.516559 0.985484 -3.050454 1.064139 -0.427328 -4.603813 0.000000 0.000000 0.000000 0.000000 0.000000 0.000000 1.086618 -0.427256 -4.603352 -5.694805 -10.493381 7.608347 -0.030810 -6.025158 -10.033724 0.000000 0.000000 0.000000 1.086618 -0.427256 -4.603352 -8.676808 -25.765731 -10.075466 0.000000 0.000000 0.000000 -18.326612 -15.006479 -10.670920 -143.139947 -54.309576 -144.303838 0.000000 0.000000 0.000000 1.086618 -0.427256 -4.603352 -7.681966 25.388563 6.444248 0.000000 0.000000 0.000000 -12.655757 14.347784 25.486337 -174.509366 58.206374 170.828372 0.000000 0.000000 0.000000 
-16.576521 98.769150 -2.790192 0.000000 0.000000 0.000000 6.245748 10.008134 2.207317 -56.413442 -8.323365 -4.078299 36.747661 -17.044788 -3.071771 9.783799 -1.975030 -6.730072 -0.327388 1.253841 0.837304 0.000000 0.000000 0.000000 6.245748 10.008134 2.207317 -10.253144 -6.125221 -1.309337 51.663056 -13.283817 -9.078171 -21.622624 2.199224 14.565788 -28.350717 0.033774 -1.090501 0.000000 0.000000 0.000000 6.245748 10.008134 2.207317 6.028553 0.250645 -3.320479 -1.909140 -0.850889 -5.060079 0.000000 0.000000 0.000000 0.000000 0.000000 0.000000 -1.886655 -0.850853 -5.059595 -22.734689 -9.234634 4.477812 7.334331 -6.985444 -9.210166 0.000000 0.000000 0.000000 -1.886655 -0.850853 -5.059595 -7.298174 -17.415328 -8.034954 0.000000 0.000000 0.000000 -14.064189 -8.494677 -2.706171 -146.039963 -74.946259 -142.967894 0.000000 0.000000 0.000000 -1.886655 -0.850853 -5.059595 -7.063742 17.810825 3.824987 0.000000 0.000000 0.000000 -0.653491 7.660489 19.416995 140.339979 70.312071 -146.961369 0.000000 0.000000 0.000000 
